<?xml version="1.0" encoding="utf-8"?>
<!-- Generator: Adobe Illustrator 17.0.0, SVG Export Plug-In . SVG Version: 6.00 Build 0)  -->
<!DOCTYPE svg PUBLIC "-//W3C//DTD SVG 1.1//EN" "http://www.w3.org/Graphics/SVG/1.1/DTD/svg11.dtd">
<svg version="1.1" id="Camada_1" xmlns="http://www.w3.org/2000/svg" xmlns:xlink="http://www.w3.org/1999/xlink" x="0px" y="0px"
	 width="200px" height="50px" viewBox="0 0 200 50" enable-background="new 0 0 200 50" xml:space="preserve">
<g>
	<path fill="#FFFFFF" d="M58.649,45.47l4.725-38.878h4.619L63.268,45.47H58.649z"/>
	<path fill="#FFFFFF" d="M86.388,38.423c-0.633,1.126-1.315,2.146-2.045,3.062c-0.73,0.915-1.504,1.693-2.323,2.336
		s-1.681,1.14-2.586,1.491c-0.907,0.352-1.843,0.527-2.811,0.527c-1.056,0-2.015-0.207-2.877-0.62
		c-0.862-0.413-1.597-1.021-2.204-1.821c-0.607-0.8-1.078-1.785-1.412-2.956c-0.334-1.17-0.501-2.511-0.501-4.024
		c0-1.584,0.198-3.128,0.594-4.633c0.396-1.504,0.959-2.925,1.689-4.262c0.73-1.338,1.605-2.564,2.626-3.683
		c1.02-1.117,2.16-2.085,3.418-2.903c1.258-0.818,2.608-1.451,4.051-1.9s2.956-0.673,4.54-0.673c1.144,0,2.257,0.093,3.339,0.277
		c1.083,0.185,2.151,0.506,3.207,0.963L89.898,45.47H87.47c-0.616,0-1.034-0.158-1.253-0.475c-0.22-0.317-0.33-0.704-0.33-1.162
		L86.388,38.423z M88.183,22.006c-0.387-0.088-0.77-0.146-1.148-0.172s-0.752-0.039-1.122-0.039c-1.056,0-2.076,0.171-3.062,0.515
		c-0.986,0.343-1.91,0.822-2.771,1.438c-0.862,0.616-1.646,1.351-2.349,2.203c-0.704,0.854-1.306,1.791-1.808,2.812
		s-0.894,2.107-1.175,3.26c-0.282,1.152-0.422,2.336-0.422,3.55c0,4.24,1.355,6.36,4.065,6.36c0.862,0,1.707-0.268,2.534-0.805
		c0.827-0.536,1.614-1.284,2.362-2.243c0.748-0.959,1.438-2.094,2.072-3.405c0.633-1.311,1.196-2.749,1.689-4.315L88.183,22.006z"/>
</g>
<g>
	<path fill="#FFFFFF" d="M104.517,26.247c0.669-1.091,1.386-2.076,2.151-2.957c0.766-0.879,1.57-1.632,2.415-2.256
		c0.845-0.625,1.724-1.109,2.639-1.452c0.915-0.343,1.848-0.515,2.798-0.515c2.287,0,4.064,0.828,5.332,2.481
		c1.267,1.654,1.9,4.073,1.9,7.258c0,1.443-0.15,2.886-0.449,4.329c-0.299,1.442-0.726,2.819-1.28,4.13
		c-0.554,1.312-1.223,2.534-2.006,3.669s-1.653,2.121-2.612,2.956c-0.96,0.836-2.002,1.491-3.128,1.967
		c-1.126,0.475-2.306,0.712-3.537,0.712c-1.425,0-2.71-0.299-3.854-0.897c-1.144-0.598-2.094-1.451-2.851-2.56l-0.369,1.716
		c-0.141,0.457-0.317,0.801-0.528,1.029c-0.211,0.229-0.59,0.343-1.135,0.343h-2.481l4.698-38.878h4.592L104.517,26.247z
		 M102.801,40.341c0.669,0.933,1.474,1.597,2.415,1.993c0.941,0.396,1.888,0.594,2.838,0.594c0.914,0,1.776-0.193,2.586-0.581
		c0.81-0.387,1.549-0.91,2.218-1.57c0.668-0.66,1.262-1.434,1.781-2.322c0.519-0.889,0.963-1.839,1.333-2.851
		c0.369-1.012,0.646-2.059,0.831-3.142c0.185-1.082,0.277-2.15,0.277-3.206c0-2.094-0.374-3.687-1.122-4.777
		s-1.808-1.637-3.18-1.637c-0.845,0-1.699,0.264-2.561,0.792c-0.862,0.527-1.698,1.263-2.508,2.204s-1.562,2.059-2.257,3.352
		s-1.297,2.705-1.808,4.236L102.801,40.341z"/>
	<path fill="#FFFFFF" d="M145.928,41.265c-0.897,0.933-1.777,1.729-2.64,2.389s-1.737,1.21-2.626,1.649
		c-0.889,0.44-1.821,0.762-2.798,0.964c-0.977,0.201-2.027,0.303-3.153,0.303c-1.531,0-2.904-0.255-4.118-0.765
		c-1.214-0.511-2.243-1.236-3.088-2.178s-1.496-2.081-1.953-3.418c-0.458-1.337-0.687-2.833-0.687-4.487
		c0-1.372,0.146-2.74,0.436-4.104c0.291-1.364,0.713-2.662,1.268-3.894c0.554-1.231,1.231-2.375,2.032-3.431
		c0.8-1.057,1.715-1.967,2.744-2.732c1.03-0.766,2.165-1.367,3.405-1.808c1.24-0.44,2.573-0.66,3.999-0.66
		c1.354,0,2.524,0.194,3.51,0.581s1.795,0.88,2.429,1.478c0.634,0.599,1.104,1.259,1.412,1.979c0.308,0.722,0.462,1.408,0.462,2.059
		c0,1.162-0.237,2.23-0.713,3.207c-0.475,0.977-1.346,1.856-2.613,2.64c-1.267,0.783-3.009,1.465-5.226,2.046
		c-2.217,0.58-5.067,1.047-8.552,1.398c0,0.193-0.005,0.383-0.013,0.567c-0.01,0.185-0.014,0.374-0.014,0.567
		c0,2.358,0.515,4.157,1.544,5.397c1.03,1.24,2.582,1.861,4.659,1.861c0.845,0,1.597-0.088,2.256-0.265
		c0.66-0.176,1.25-0.391,1.769-0.646c0.52-0.255,0.977-0.536,1.373-0.845c0.396-0.308,0.756-0.589,1.082-0.845
		c0.325-0.255,0.629-0.47,0.91-0.646c0.281-0.176,0.563-0.264,0.845-0.264c0.334,0,0.634,0.149,0.897,0.448L145.928,41.265z
		 M138.485,22.473c-1.109,0-2.13,0.229-3.062,0.686c-0.933,0.458-1.76,1.087-2.48,1.888c-0.722,0.801-1.338,1.742-1.848,2.824
		c-0.511,1.082-0.906,2.248-1.188,3.497c2.709-0.334,4.883-0.717,6.519-1.148c1.637-0.431,2.895-0.897,3.774-1.398
		c0.88-0.502,1.461-1.043,1.742-1.624c0.281-0.58,0.423-1.188,0.423-1.82c0-0.317-0.071-0.647-0.212-0.99s-0.365-0.655-0.673-0.937
		s-0.708-0.515-1.201-0.7C139.787,22.564,139.188,22.473,138.485,22.473z"/>
	<path fill="#FFFFFF" d="M149.755,46.2l4.725-38.878h4.618L154.373,46.2H149.755z"/>
	<path fill="#FFFFFF" d="M161.104,46.2l4.725-38.878h4.618L165.722,46.2H161.104z"/>
	<path fill="#FFFFFF" d="M188.843,39.153c-0.634,1.126-1.316,2.146-2.046,3.062c-0.73,0.915-1.505,1.693-2.322,2.336
		c-0.818,0.643-1.681,1.14-2.587,1.491s-1.844,0.527-2.811,0.527c-1.057,0-2.016-0.207-2.877-0.62
		c-0.862-0.413-1.598-1.021-2.204-1.821c-0.607-0.8-1.078-1.785-1.412-2.956c-0.335-1.17-0.502-2.511-0.502-4.024
		c0-1.584,0.198-3.128,0.594-4.633c0.396-1.504,0.959-2.925,1.689-4.262c0.73-1.338,1.605-2.564,2.626-3.683
		c1.021-1.117,2.16-2.085,3.418-2.903s2.608-1.451,4.052-1.9c1.442-0.449,2.956-0.673,4.54-0.673c1.144,0,2.257,0.093,3.339,0.277
		s2.15,0.506,3.206,0.963L192.353,46.2h-2.428c-0.616,0-1.034-0.158-1.254-0.475c-0.221-0.317-0.33-0.704-0.33-1.162L188.843,39.153
		z M190.637,22.736c-0.387-0.088-0.77-0.146-1.147-0.172c-0.379-0.026-0.753-0.039-1.122-0.039c-1.056,0-2.076,0.171-3.062,0.515
		c-0.985,0.343-1.909,0.822-2.771,1.438s-1.646,1.351-2.349,2.203c-0.704,0.854-1.307,1.791-1.809,2.812
		c-0.501,1.021-0.893,2.107-1.174,3.26c-0.282,1.152-0.423,2.336-0.423,3.55c0,4.24,1.354,6.36,4.064,6.36
		c0.862,0,1.707-0.268,2.534-0.805c0.827-0.536,1.614-1.284,2.362-2.243s1.438-2.094,2.072-3.405
		c0.633-1.311,1.196-2.749,1.688-4.315L190.637,22.736z"/>
</g>
<path fill="#FFFFFF" d="M15.271,27.241c0,0-2.656-3.874-1.439-10.626s8.191-11.401,15.939-9.74s8.634,10.515,8.301,14.943
	s-3.985,13.836-15.385,23.465c0,0,1.55-7.416-2.656-11.511c0,0,2.29-4.398,4.538-5.202c0,0,3.846,5.76,5.608,1.575l1.254,0.086
	v-1.107h1.218l0.111-1.439l2.324-0.111l-0.111-3.763c0,0,1.771-1.218,1.992-4.095c0,0-1.771,1.992-3.874,2.214
	s-7.416-0.221-8.744,1.218s-4.76,3.653-6.53,9.076c0,0-0.452-2.665,2.595-5.565c0,0,2.8-3.481,3.12-4.001
	C23.532,22.655,19.255,22.592,15.271,27.241z"/>
<circle fill="none" stroke="#FFFFFF" stroke-width="2" stroke-miterlimit="10" cx="25.821" cy="25" r="22.201"/>
</svg>
