<?xml version="1.0" encoding="utf-8"?>
<!-- Generator: Adobe Illustrator 22.0.0, SVG Export Plug-In . SVG Version: 6.00 Build 0)  -->
<svg version="1.1" id="Camada_1" xmlns="http://www.w3.org/2000/svg" xmlns:xlink="http://www.w3.org/1999/xlink" x="0px" y="0px"
	 viewBox="0 0 556.7 200" style="enable-background:new 0 0 556.7 200;" xml:space="preserve">
<style type="text/css">
	.st0{fill:#387E3B;}
	.st1{font-family:'Futura-Bold';}
	.st2{font-size:66.5778px;}
	.st3{font-family:'Futura-Medium';}
	.st4{font-size:61.6873px;}
	.st5{fill:#21522E;}
</style>
<text transform="matrix(1 0 0 1 178.6074 83.3892)" class="st0 st1 st2">EVENT</text>
<text transform="matrix(1 0 0 1 178.6084 153.3662)" class="st0 st3 st4">ZONAS</text>
<g>
	<path class="st5" d="M95.8,64.9c-2.8,2.8,0,5.4,0.4,8.6c4-5.2,7.3-10.4,12.2-14.2c0.3,0.4,0.7,0.8,1,1.2
		C97,79.2,94.5,89.3,96.5,119.8c7.9-12.7,16.8-23.3,27.8-32.3c-5.8,10.4-13,19.9-18.2,31.7c7.2-3.8,13-9.3,21.2-9.5
		c-4.2,3.1-8.5,6-12.5,9.3c-9.6,8-14.5,18.3-13.9,30.9c0.4,7.7,0.9,15.3,1.8,23c0.4,3.2-0.1,4.2-3.5,4.3
		c-12.6,0.5-12.8,0.6-11.7-11.5c0.8-8.9,0.8-17.7,0-26.6C85.8,120,78,107.5,61.2,97.7c5.4-1.2,14.5,3.3,21.8,10.6
		c0.3-4.1-0.3-6.1-5.3-15c-2.7-4.8-5.6-9.4-7.8-14.6c7.9,6.7,14,14.8,19.2,25.3c1.2-21,2.3-40.6,3.5-61.5c2.6,7,2,13,2.3,18.9
		C94.2,62.9,95.1,63.9,95.8,64.9z"/>
	<path class="st5" d="M142.5,92.2c2.3,1.6,4.6,3,6.8,4.7c1.4,1,3.8,2,2.9,4c-0.6,1.4-2.7,2.2-4.7,2c-1.2-0.1-2.4,0-3.8,0
		c1.5,3.4,6.5,4.9,5.3,8.9c-0.7,2.2-4.1,0.1-6.2,1c-0.7,1.2,0.7,1.5,1.2,2.2c1.3,2.2,4.3,4.7,2.4,6.8c-2.2,2.5-5.1-0.4-7.4-1.6
		c-1-0.6-1.9-1.5-2.6-2.5c-1.4-1.9-3.5-3.8-2.3-6.4c1.2-2.5,3.6,0.7,5.4-0.5c-4.6-8.3-4.6-8.3,0.7-9.8c-1.5-0.9-3-1.6-4.2-2.5
		c-2-1.6-5.2-2.8-4.4-5.8c0.7-3,4.1-1.4,6.3-2.3c-0.7-2.4-5.4-3.2-3.4-6.2c1.8-2.7,5.5-2.2,8.5-1.5c3.9,0.9,9.4,3.1,9.3,6.2
		C151.9,93.8,145.8,90.5,142.5,92.2z"/>
	<path class="st5" d="M112.8,141.7c-0.2-0.5-0.4-1.1-0.7-1.6c-1.5-2.5-5.2-5.1-3.1-7.7c2.5-3.1,6.3-0.8,9.4,0.7
		c1.1,0.5,1.9,1.6,3.4,1.2c1.3-2.3-1.1-3.5-1.7-5.2c-1-2.4-2.6-5-1-7.4c1.7-2.6,3.8,1.5,6.3,0.2c-0.4-2.1-3.5-4.7-1-6.5
		c2.3-1.7,5,0.5,7.2,1.9c3.5,2.2,6.1,5.2,8.2,8.8c0.5,0.8,0.9,2.1,0.6,2.8c-0.7,1.3-2.1,0.9-3.3,0.5c-2.6-1-5.1-2.1-8.6-3.6
		c0.9,1.9,1.3,2.9,1.7,3.9c4,8.3,3.5,9.1-4.8,8.7c-0.1,0.3-0.4,0.7-0.4,1c0.4,1.9,3.3,3.6,1.8,5.3c-1.5,1.7-4.2,0.9-6.3,0.1
		C117.9,143.9,115.3,142.7,112.8,141.7C112.8,141.6,112.8,141.7,112.8,141.7z"/>
	<path class="st5" d="M115.1,69.9c3,3.8,6,6.5,6.9,10.6c0.3,1.4,1.1,3-0.3,3.9c-1.2,0.9-2.7,0.1-4-0.6c-3.1-1.7-5.7-3.8-7.6-6.8
		c-3.3-5.3-1.6-11.2,4.2-13.3c7-2.5,13.5-1,19.6,2.9c2.8,1.8,1.8,3.1-0.8,3.9C127.3,72.5,121.6,71.8,115.1,69.9z"/>
	<path class="st5" d="M145.5,26.4c0.2,0,0.4,0,0.6,0c2.3,0.1,5.6-1.2,6.6,1.5c0.9,2.6-3,2.7-4.4,5c1.4,1.4,5.3,2.6,1.5,5.7
		c-0.8,0.7,0.2,2.4,1,3.2c5.4,4.7-0.2,4.4-2.2,4.2c-3.1-0.3-9.1,2.1-7.3-5.3c0.2-1-0.5-1-1-1.1c-4.6-0.4-6.9-6.8-12.5-4.7
		c-1.1,0.4-3,0-3.3-1.9c-0.2-1.6,0.9-2.6,2.1-3.4c2.1-1.2,4.4-2.2,6.8-2.2c1.8,0,3.9-0.5,5,1.3c1.2,2-1.7,2.6-2.1,4.2
		c6.3,1.8,6.5-4.1,9.3-6.8L145.5,26.4z"/>
	<path class="st5" d="M64.2,130.8c3.7-1.4,7.3-2.8,11-4.1c1.6-0.6,3.2-0.7,4.3,0.9c1,1.4,0.3,2.6-0.4,3.9
		c-3.5,7.4-9.9,10.8-17.6,12.1c-3,0.5-4.3-0.9-2.8-3.8C60.5,136.7,62.4,133.8,64.2,130.8L64.2,130.8z"/>
	<path class="st5" d="M64.2,130.8c-4.2-1.2-8.1,1.5-12.3,1c-1.4-0.2-3,0.1-3.5-1.6c-0.4-1.3,0.7-2.3,1.5-3.1
		c5.7-5.6,12.5-8.7,20.6-8.5c1.2,0,2.5-0.1,3.2,1.2c0.8,1.6-0.3,2.6-1,3.8C70.8,127,65.7,126.8,64.2,130.8L64.2,130.8z"/>
	<path class="st5" d="M45.4,85c1.6,1.2,5,0.9,4.3,3.8c-0.5,2.3-3.2,2-5.1,2.7c-0.7,0.3-1.6,0-2.4,0.1c-2.9,0.6-5.6-0.1-6.5-2.8
		c-1.1-3,3.3-2.1,4-4.1c-0.6-2.5-5-1.9-4.2-4.5c0.7-2.3,3.7-2.9,6.1-3.5c1.2-0.3,2.4-0.7,3.6-0.6c2.9,0.3,7.1-0.1,7.7,3.2
		c0.7,3.6-3.4,3.6-6.1,4.3C46.3,83.9,45.9,84.5,45.4,85z"/>
	<path class="st5" d="M87.8,82.2c0.1,2.9-1,4-4,3.2c-5.5-1.5-12-9.7-12.3-15.3c-0.1-2.7,1-3,3.3-2.5C80.2,68.7,87.5,76.8,87.8,82.2z
		"/>
	<path class="st5" d="M57.5,77.2c5.1-0.3,16,11.4,15.1,16.3c-0.5,2.6-2.3,2.4-4.1,1.6c-6.8-2.8-10.7-8.3-12.7-15.1
		C55.1,77.8,55.7,77.3,57.5,77.2z"/>
	<path class="st5" d="M140.7,72.2c4.8,0.1,11.4,1,11.1,4.6c-0.3,4.6-6.8,4.3-11.1,4.1c-3.7-0.1-9.3-0.6-9.1-4.8
		C131.8,71.6,137.5,72.5,140.7,72.2z"/>
	<path class="st5" d="M75.3,54.1c5.9,1.4,10.6,4.6,13.3,10.2c1.8,3.7,0.1,5-3.4,4.4C78.7,67.5,74.7,63,72,57.2
		C70.6,54.1,72.9,54,75.3,54.1z"/>
	<path class="st5" d="M44.8,21.5c0.7-1.6,0.3-4.1,3.7-2.9c3.3,1.1,7.1,3.1,6.2,6.1c-1.1,3.6,1.1,2.8,2.4,3.4
		c2.2,1.2,5.8,2.2,4.7,5.2c-1,2.8-4.5,1.5-7,1.2c-2.4-0.3-4.4-1.7-6.4-3.1c-1.2-0.8-1.9-2-1-2.9C52.1,23.9,46.6,23.4,44.8,21.5
		L44.8,21.5z"/>
	<path class="st5" d="M69.4,152.2c-2.5,0.1-4.3-0.6-2.8-3.4c2.8-5.2,7-8.8,13-9.6c3.8-0.5,4.8,1.4,3,4.6
		C79.9,148.9,74.9,151,69.4,152.2z"/>
	<path class="st5" d="M75.6,41.1C71.4,40.6,65,40.6,65,36.5c0-3.6,6.5-4.6,10.7-4.4c3.5,0.2,9-0.8,8.9,4.4
		C84.6,41.5,79.2,40.6,75.6,41.1z"/>
	<path class="st5" d="M107.7,42c3.9-0.1,7.5,1.1,10.9,3.1c1,0.6,2.3,1.2,2.3,2.6c0,1.5-1.5,1.7-2.6,2c-5.2,1.6-10.3,1.4-15.3-0.8
		c-1.8-0.8-4.3-1.6-3.8-4c0.4-2.3,3.1-2.2,5-2.6C105.3,41.9,106.5,42,107.7,42z"/>
	<path class="st5" d="M69.1,24c1.4-1.9-2.2-4.6,0.4-5.9c2.4-1.2,5.1,0.2,7.5,1.5c3.9,2,7.1,4.7,7.9,9.3c0.2,1.1-0.4,2-1.6,2.1
		c-4.5,0.6-7.5-2-10.7-4.5C71.5,25.6,71.3,23.3,69.1,24L69.1,24z"/>
	<path class="st5" d="M104.4,31.4c-3.8,0.2-5-1.7-3.1-4.7c3-5.1,7.7-8.1,13.7-8.8c2.5-0.3,3.3,0.8,2.5,3.2
		C116.1,25.5,109,31.2,104.4,31.4z"/>
	<path class="st5" d="M79.9,43.3c2.5,0.6,8.2,0.1,8.2,4.3c0,4.3-5.6,3.9-9.3,4.2c-1,0.1-2-0.1-3-0.4c-2.8-1-7.7-0.8-7.4-4.4
		c0.2-3.3,5-3.1,8-3.7C77.2,43.2,78.1,43.3,79.9,43.3z"/>
	<path class="st5" d="M39.1,40.3c-1.5-1.8-4.7-2.2-4-4.8c0.5-1.9,3.3-2,5.2-2.6c2.2-0.7,4.4-0.4,6.6,0.2c1.8,0.5,3.9,1.1,4.2,3
		c0.4,2.4-2.3,2.2-3.7,3.1c-1.2,0.7-3.4-0.2-2.8,3.1c0.4,2.1-7.3,4-8.6,1.9C34.1,40.8,37.9,41.6,39.1,40.3z"/>
	<path class="st5" d="M53.3,99.5c2.7-0.1,3.8,0.9,2.8,3.7c-1.5,4.2-9.8,9.8-14.4,9.8c-2.8,0-3.1-1.3-2-3.4
		C42.6,103.9,47.5,101.1,53.3,99.5z"/>
	<path class="st5" d="M45.6,73.9c-3.9-0.5-10-0.2-10-4.3c0-3.8,6.2-4.3,10.2-4.3c3.3,0,8.6-0.6,8.5,4.2
		C54.2,74.2,49.1,73.4,45.6,73.9z"/>
	<path class="st5" d="M113.1,91.3c-0.2,1.3,1,3.3-1.1,4c-1.5,0.5-2.5-1-3.5-1.9c-3.7-3.5-5.6-7.8-6.2-12.7c-0.2-1.4-0.2-3,1.1-3.8
		c1.9-1.3,2.9,0.6,4.1,1.5C110.9,81.2,112.9,85.9,113.1,91.3z"/>
	<path class="st5" d="M66.6,51.4c0.1,3.1-1.1,4.2-4,2.7c-5.2-2.7-8-7.2-9.1-12.8c-0.5-2.4,0.2-3.5,2.9-2.6
		C60.6,40.1,66.4,47.1,66.6,51.4z"/>
	<path class="st5" d="M57.3,113.4c0.2,4.7-9.8,12.3-14.3,11c-1.2-0.4-1.5-1.1-1.5-2.3c0.3-4.3,8.8-11.6,13.1-11.2
		C56.2,111,57.4,111.5,57.3,113.4z"/>
	<path class="st5" d="M107,31.9c3.5,0.4,8.7,0.2,8.9,3.4c0.2,3.8-4.9,4.4-8.4,4.8c-3.5,0.4-8.7,0.9-9-3.2
		C98.1,32.2,103.5,32.5,107,31.9z"/>
	<path class="st5" d="M64.9,65.5c-5.5-0.4-9.4-3.5-12.3-7.9c-1.7-2.5-0.6-3.8,2.3-3.5c5.3,0.6,9.6,3.1,12.5,7.6
		C69.4,64.7,67.9,65.7,64.9,65.5z"/>
	<path class="st5" d="M131,20.4c-0.3,3.7-8.4,9.9-12.2,9.5c-2.1-0.2-2.7-1.1-2-3.2c1.3-4,8.4-8.9,12.3-8.5
		C130.6,18.3,131.2,18.9,131,20.4z"/>
	<path class="st5" d="M141.7,63.1c-0.9-0.1-2.2-0.1-3.3-0.4c-1.5-0.5-3.4-0.8-3.7-2.6c-0.4-2.4,1.9-2.7,3.5-3.5
		c0.9-0.4,1.9-0.7,2.9-0.8c3.7-0.5,7.2,0.1,10.4,2.2c0.8,0.5,0.8,1.4,0.1,2.1C148.9,62.6,145.5,63,141.7,63.1z"/>
	<path class="st5" d="M41.2,100.8c-2-0.5-5.1,0.7-5.6-2.1c-0.3-2.1,2.3-3,4.1-3.9c1.6-0.8,3.3-1.6,5.1-1.7c3-0.2,7.5-1.9,8.2,2
		c0.6,3.4-4.1,4.1-7,5.1C44.4,100.8,42.7,100.6,41.2,100.8z"/>
	<path class="st5" d="M69.1,23.9c-0.3,1.9,1.5,4.5-0.4,5.7c-2.3,1.4-4.6-0.4-6.6-1.8c-3-2-7.2-5.3-5.4-8.2c2.5-3.9,6.2,0.4,9.2,1.9
		c1.2,0.6,2.2,1.7,3.3,2.6C69.1,24,69.1,23.9,69.1,23.9z"/>
	<path class="st5" d="M109.2,150.2c-1-1.9-2-3.8-2.9-5.8c-0.6-1.4-1.6-3.1-0.2-4.4c1.3-1.2,2.5,0.4,3.7,0.9c1,0.5,1.8,1.7,3.1,0.8
		l-0.1-0.1c0.4,3.7,3.6,5.9,4.7,9.2c0.4,1.2,1.6,2.8,0.2,3.8c-1.3,1-2.6-0.3-3.7-1.1C112.3,152.5,110.7,151.3,109.2,150.2
		L109.2,150.2z"/>
	<path class="st5" d="M62.7,105.6c4,0.4,7.3,1.6,10,4.1c1,0.9,2.3,1.9,1.3,3.5c-0.8,1.3-2.2,1.7-3.7,1.5c-3.6-0.5-6.9-1.8-9.5-4.6
		c-0.8-0.9-1.9-1.8-1.4-3.1C59.9,105.5,61.7,105.9,62.7,105.6z"/>
	<path class="st5" d="M92.2,17.3c3.9,5.1,4.4,9.9,3,15c-0.4,1.5-0.8,3.4-2.8,3.5c-2.1,0.1-2.3-1.9-2.8-3.4
		C87.9,27.3,89.2,22.6,92.2,17.3z"/>
	<path class="st5" d="M42.2,52.8c-2.3-0.9-6.4,0.3-6.6-2.7c-0.3-2.7,3.7-3.4,6.1-4c3.1-0.8,6.4-1.1,9.4,0.9c0.8,0.5,1,1.3,0.5,2.1
		C49.2,52.2,45.6,52.1,42.2,52.8z"/>
	<path class="st5" d="M127.8,96.7c1.8-0.1,2.6,0.6,2.4,2.5c-0.3,3.4-6.1,8.6-9.8,8.6c-1.8,0-3.1-0.3-3-2.6
		C117.6,101.5,123.5,96.5,127.8,96.7z"/>
	<path class="st5" d="M129.2,45.3c-3.9-0.3-7.4-1.2-10-3.9c-0.8-0.8-0.6-2.5,0.6-3.2c3.5-1.9,7.1-1,10.4,0.6
		c1.9,0.9,4.9,1.7,4.5,4.2C134.1,45.8,130.8,44.3,129.2,45.3z"/>
	<path class="st5" d="M98.1,99.1c0.9-2.6,0.4-6.8,3.7-6.7c3.5,0.1,3.6,4.3,3.5,7.2c-0.1,3-0.6,7.5-3.5,7.4
		C98.2,106.8,99,102.1,98.1,99.1z"/>
	<path class="st5" d="M140.6,46.8c5-0.4,8.3,1.2,11,4.2c0.7,0.7,0.3,1.6-0.4,2c-3.6,2-7.1,0.7-10.6-0.2c-2.2-0.6-4.8-1.9-4.4-4.3
		C136.6,46,139.6,47.1,140.6,46.8z"/>
	<path class="st5" d="M42.9,55.7c2.8,1,7.2,0.4,7.3,4c0.1,3.4-3.9,3.3-6.6,3.3c-3.2,0-7.7-0.5-7.9-3.7C35.5,56,40.2,56.6,42.9,55.7z
		"/>
	<path class="st5" d="M95.8,64.9c-0.6-1.1-1.5-2.1-1-3.5c2.4-2.9,3.5-6.8,6.8-8.9c1.6-1,3-1.6,3.6,0.9
		C106.4,58.3,101.2,64.7,95.8,64.9z"/>
	<path class="st5" d="M147.6,71.5c-3.4-0.4-7.4-0.4-8.1-4.7c-0.3-2.3,2.6-1.9,4.3-1.8c3.6,0.1,7.4,1.1,8.2,4.9
		C152.5,72,149.3,71.1,147.6,71.5z"/>
	<path class="st5" d="M124.5,60.5c-3.2-0.2-6.4-0.4-8.8-3.1c-0.3-0.3-0.2-1.5,0-1.6c3.1-1.3,6.3-1,9.3,0.1c1.7,0.6,4.7,0.8,4.1,3.3
		C128.8,61.2,126.2,60.3,124.5,60.5z"/>
	<path class="st5" d="M83.8,152.6c-1,3.1-3,5.4-6.4,6.1c-1.4,0.3-2.2-0.8-1.8-2.2c0.8-3.3,2.6-5.8,6.1-6.7
		C83.8,149.3,83.7,151,83.8,152.6z"/>
	<path class="st5" d="M109.1,150.1c-1.2,1.2,0,2.2,0.4,3.2c0.8,1.8,2.1,4.1,0.4,5.5s-3.3-0.6-4.5-1.8c-1.7-1.8-3.3-4-2-6.5
		C104.9,147.7,107.3,151.9,109.1,150.1C109.2,150.2,109.1,150.1,109.1,150.1z"/>
	<path class="st5" d="M141.3,19.8c0.1,2.7-6.6,7.5-9.1,6.5c-0.9-0.3-1.1-0.9-1.1-1.8c0.2-2.6,6.2-6.9,8.7-6.3
		C140.8,18.5,141.3,18.9,141.3,19.8z"/>
	<path class="st5" d="M145.6,26.3c-1.6-0.4-4.1,1.3-4.6-1s1.7-3.9,3.5-5.1c1.6-1.1,3.2-3.4,5.2-2c1.6,1,1.2,3.2-0.2,4.7
		c-1.2,1.3-2.6,2.4-4,3.6C145.5,26.4,145.6,26.3,145.6,26.3z"/>
	<path class="st5" d="M129.5,54.5c-3-0.3-6.4-0.1-6.9-3.6c-0.3-2.2,2.6-2.2,4.2-2c2.7,0.2,6.4,0.1,7,3.3
		C134.3,54.6,131,54,129.5,54.5z"/>
	<path class="st5" d="M44.7,21.4c-0.6,1.6,2.6,3.3,0,4.7c-1.7,0.9-3.5,0-5-1.2c-1.7-1.4-3.7-2.6-3.8-5c0-1.4,1.4-1,2.3-1.1
		c2.6-0.1,4.2,2.1,6.5,2.8C44.8,21.5,44.7,21.4,44.7,21.4z"/>
	<path class="st5" d="M34.8,27.9c0.6-1.9,2.2-1.9,3.4-1.6c2,0.5,4.9,0.3,5.3,2.9c0.3,2.1-2,2-3.6,1.9C37.8,30.8,35.7,30.2,34.8,27.9
		z"/>
	<path class="st5" d="M108.3,59.3c0.8-0.9,1.6-1.8,2.6-2.9c0.9,2.3-0.4,3.2-1.6,4.1C109,60.1,108.7,59.7,108.3,59.3z"/>
</g>
</svg>
