<?xml version="1.0" encoding="utf-8"?>
<!-- Generator: Adobe Illustrator 17.0.0, SVG Export Plug-In . SVG Version: 6.00 Build 0)  -->
<!DOCTYPE svg PUBLIC "-//W3C//DTD SVG 1.1//EN" "http://www.w3.org/Graphics/SVG/1.1/DTD/svg11.dtd">
<svg version="1.1" id="Camada_1" xmlns="http://www.w3.org/2000/svg" xmlns:xlink="http://www.w3.org/1999/xlink" x="0px" y="0px"
	 width="200px" height="85px" viewBox="0 0 200 85" enable-background="new 0 0 200 85" xml:space="preserve">
<g>
	<path fill="#FFFFFF" d="M29.252-27.49c-0.668-0.702-1.002-1.755-1.002-3.16v-33.955l1.13-0.154v34.057
		c0,2.124,0.873,3.185,2.62,3.185c0.72,0,1.404-0.136,2.055-0.411l0.309,0.976c-0.891,0.342-1.696,0.514-2.415,0.514
		C30.819-26.438,29.92-26.79,29.252-27.49z"/>
	<path fill="#FFFFFF" d="M57.454-28.852c0.36,0.755,0.984,1.285,1.875,1.593l-0.308,0.822c-1.062-0.342-1.833-0.899-2.312-1.67
		c-0.48-0.77-0.737-1.943-0.771-3.519c-1.952,3.46-4.846,5.189-8.681,5.189c-2.501,0-4.462-0.719-5.882-2.158
		c-1.421-1.438-2.131-3.355-2.131-5.753c0-2.671,0.942-4.743,2.825-6.216c1.883-1.472,4.435-2.21,7.654-2.21h6.062v-3.184
		c0-2.397-0.523-4.186-1.567-5.368c-1.045-1.181-2.799-1.773-5.265-1.773c-2.157,0-4.606,0.565-7.346,1.696l-0.36-0.976
		c2.808-1.164,5.376-1.747,7.706-1.747c2.774,0,4.794,0.677,6.061,2.029c1.267,1.354,1.901,3.365,1.901,6.036v13.459
		C56.915-30.855,57.095-29.605,57.454-28.852z M52.343-28.93c1.369-0.942,2.517-2.32,3.442-4.135v-8.681h-5.856
		c-2.979,0-5.3,0.634-6.961,1.901c-1.661,1.267-2.491,3.099-2.491,5.496c0,2.124,0.608,3.794,1.823,5.009s2.868,1.823,4.958,1.823
		C49.278-27.517,50.973-27.987,52.343-28.93z"/>
</g>
<g>
	<path fill="#FFFFFF" d="M88.263-50.459c1.813,2.484,2.722,5.951,2.722,10.403c0,2.808-0.429,5.283-1.285,7.423
		c-0.856,2.141-2.088,3.801-3.699,4.983c-1.609,1.181-3.492,1.772-5.65,1.772c-2.843,0-5.239-1.198-7.192-3.595l-0.462,2.979h-4.161
		v-37.963l4.726-0.565v14.846c1.952-2.671,4.503-4.007,7.654-4.007C83.999-54.183,86.447-52.941,88.263-50.459z M84.126-32.172
		c1.181-1.695,1.773-4.323,1.773-7.884c0-3.665-0.55-6.31-1.644-7.937c-1.096-1.626-2.654-2.44-4.675-2.44
		c-2.397,0-4.504,1.405-6.318,4.212v12.945c0.719,1.131,1.6,2.022,2.646,2.671c1.044,0.651,2.148,0.976,3.313,0.976
		C81.31-29.628,82.946-30.476,84.126-32.172z"/>
	<path fill="#FFFFFF" d="M118.878-38.413h-17.26c0.205,2.98,0.958,5.172,2.26,6.575c1.301,1.405,2.979,2.106,5.034,2.106
		c1.301,0,2.499-0.187,3.595-0.564c1.096-0.376,2.243-0.976,3.442-1.799l2.055,2.826c-2.876,2.26-6.028,3.39-9.453,3.39
		c-3.767,0-6.703-1.232-8.81-3.699c-2.106-2.465-3.159-5.855-3.159-10.171c0-2.808,0.453-5.299,1.361-7.473
		c0.907-2.175,2.209-3.879,3.905-5.111c1.695-1.233,3.689-1.849,5.984-1.849c3.596,0,6.352,1.181,8.27,3.544
		s2.876,5.634,2.876,9.811C118.98-40.039,118.946-39.235,118.878-38.413z M114.306-42.214c0-2.671-0.532-4.708-1.593-6.113
		c-1.062-1.404-2.655-2.106-4.778-2.106c-3.871,0-5.977,2.843-6.318,8.527h12.688v-0.308H114.306z"/>
	<path fill="#FFFFFF" d="M127.277-27.445c-1.01-1.044-1.515-2.509-1.515-4.393v-32.619l4.726-0.565v33.082
		c0,0.753,0.129,1.302,0.386,1.644s0.693,0.514,1.309,0.514c0.651,0,1.233-0.103,1.747-0.309l1.233,3.288
		c-1.131,0.617-2.381,0.925-3.75,0.925C129.666-25.879,128.287-26.401,127.277-27.445z"/>
	<path fill="#FFFFFF" d="M141.814-27.445c-1.01-1.044-1.515-2.509-1.515-4.393v-32.619l4.726-0.565v33.082
		c0,0.753,0.129,1.302,0.386,1.644c0.257,0.342,0.693,0.514,1.309,0.514c0.651,0,1.233-0.103,1.747-0.309l1.233,3.288
		c-1.131,0.617-2.381,0.925-3.75,0.925C144.203-25.879,142.824-26.401,141.814-27.445z"/>
	<path fill="#FFFFFF" d="M173.639-30.373c0.376,0.532,0.942,0.933,1.695,1.207l-1.079,3.288c-1.404-0.171-2.534-0.564-3.39-1.181
		c-0.857-0.616-1.49-1.575-1.901-2.876c-1.815,2.705-4.504,4.058-8.065,4.058c-2.671,0-4.778-0.752-6.318-2.26
		c-1.541-1.506-2.311-3.475-2.311-5.907c0-2.876,1.035-5.085,3.108-6.627c2.071-1.541,5.008-2.312,8.809-2.312h4.161v-2.003
		c0-1.917-0.463-3.288-1.388-4.109c-0.925-0.822-2.346-1.233-4.263-1.233c-1.987,0-4.418,0.48-7.295,1.438l-1.181-3.442
		c3.355-1.233,6.473-1.849,9.349-1.849c3.185,0,5.565,0.779,7.14,2.337c1.575,1.559,2.363,3.776,2.363,6.653v12.38
		C173.074-31.717,173.262-30.904,173.639-30.373z M168.348-33.635v-6.216h-3.544c-5.001,0-7.501,1.849-7.501,5.548
		c0,1.61,0.394,2.826,1.182,3.647c0.787,0.822,1.952,1.233,3.493,1.233C164.683-29.423,166.807-30.826,168.348-33.635z"/>
</g>
<path fill="#FFFFFF" d="M-12.018-45.089c0,0-3.163-4.613-1.713-12.653s9.753-13.576,18.98-11.599
	c9.227,1.977,10.281,12.521,9.885,17.793c-0.395,5.272-4.745,16.475-18.321,27.942c0,0,1.845-8.831-3.163-13.708
	c0,0,2.727-5.238,5.404-6.195c0,0,4.58,6.859,6.678,1.875l1.494,0.102v-1.318h1.45l0.132-1.713l2.768-0.132l-0.132-4.481
	c0,0,2.109-1.45,2.372-4.877c0,0-2.109,2.372-4.613,2.636s-8.831-0.264-10.412,1.45c-1.582,1.713-5.668,4.35-7.776,10.808
	c0,0-0.538-3.174,3.09-6.627c0,0,3.334-4.145,3.716-4.765C-2.181-50.55-7.273-50.625-12.018-45.089z"/>
<text transform="matrix(1 0 0 1 -308.0128 219.3362)" fill="#FFFFFF" font-family="'Lato-Italic'" font-size="128.5287" letter-spacing="-1">la</text>
<text transform="matrix(1 0 0 1 -203.3029 221.1176)" fill="#FFFFFF" font-family="'Lato-Italic'" font-size="128.5287" letter-spacing="-1">bella</text>
<path fill="#FFFFFF" d="M-776.951-44.491c-0.982-1.196-1.757-2.095-2.483-3.032c-3.71-4.783-6.514-9.971-7.252-16.101
	c-0.55-4.572,0.286-8.935,1.95-13.161c2.54-6.449,6.638-11.918,11.469-16.741c6.715-6.704,13.732-13.107,20.662-19.594
	c5.675-5.311,11.515-10.457,16.389-16.553c3.721-4.654,6.973-9.567,8.458-15.467c1.005-3.995,0.875-7.926-0.246-11.857
	c-0.051-0.179-0.09-0.363-0.058-0.577c2.573,3.142,4.727,6.537,6.377,10.235c4.655,10.439,3.584,20.498-2.093,30.222
	c-3.171,5.432-7.125,10.263-11.564,14.69c-3.46,3.451-7.037,6.783-10.571,10.159c-0.227,0.216-0.528,0.355-0.62,0.669
	c2.902-0.705,5.786-1.499,8.713-2.079c1.674-0.332,3.416-0.323,5.129-0.448c0.274-0.02,0.607-0.02,0.824,0.114
	c0.577,0.357,1.106,0.793,1.654,1.198c-0.439,0.526-0.779,1.255-1.34,1.528c-0.756,0.367-1.688,0.546-2.536,0.523
	c-5.353-0.141-10.466,1.289-15.644,2.294c-0.292,0.057-0.584,0.269-0.812,0.478c-6.212,5.673-12.541,11.228-17.93,17.734
	c-3.763,4.542-6.933,9.418-8.448,15.197c-0.836,3.187-0.819,6.418-0.142,9.643C-777.031-45.239-777.021-45.057-776.951-44.491z"/>
<path fill="#FFFFFF" d="M-790.686-57.027c-5.062-6.683-8.379-13.964-7.91-22.528c0.319-5.818,2.369-11.095,5.368-16.002
	c4.372-7.154,10.103-13.173,16.517-18.47c8.491-7.012,17.238-13.715,25.851-20.58c5.514-4.395,11.069-8.755,15.557-14.271
	c2.015-2.476,3.687-5.137,4.389-8.309c0.023-0.103,0.114-0.19,0.292-0.471c0.312,3.65-0.436,6.879-1.924,9.977
	c-2.837,5.906-7.015,10.837-11.652,15.328c-6.934,6.717-14.102,13.192-21.179,19.76c-6.879,6.384-13.653,12.868-19.24,20.461
	c-3.724,5.062-6.846,10.435-8.236,16.664c-1.385,6.204-0.714,12.172,1.956,17.928C-790.82-57.373-790.756-57.198-790.686-57.027z"/>
<path fill="#FFFFFF" d="M-741.98-73.73c0.301,1.135,0.532,2.007,0.764,2.88c-0.063,0.072-0.125,0.144-0.188,0.216
	c-0.803-0.743-1.607-1.485-2.606-2.41c0.059,0.729,0.111,1.365,0.181,2.226c-0.51-0.702-0.911-1.255-1.434-1.977
	c-0.176,0.652-0.315,1.164-0.493,1.822c-0.431-0.366-0.859-0.73-1.409-1.197c-0.114,0.611-0.212,1.134-0.346,1.85
	c-0.662-0.545-1.281-1.055-2.049-1.687c0,0.983,0,1.849,0,3.128c-0.696-1.247-1.245-2.23-1.908-3.42
	c-0.234,0.622-0.438,1.165-0.678,1.803c-0.259-0.704-0.519-1.41-0.824-2.237c-0.228,0.245-0.392,0.421-0.625,0.67
	c-0.121-0.567-0.233-1.091-0.393-1.842c-0.318,0.441-0.557,0.772-0.972,1.348c-0.272-2.471-2.054-3.588-3.707-4.814
	c0.002-0.127,0.004-0.254,0.006-0.381c0.386,0,0.788-0.073,1.154,0.011c4.27,0.976,8.567,1.206,12.85,0.222
	c2.962-0.681,4.922-2.563,5.715-5.549c0.252-0.949,0.809-1.497,2.018-1.672c-0.172,0.484-0.304,0.819-0.408,1.163
	c-0.117,0.384-0.21,0.776-0.314,1.164c0.447-0.017,0.895-0.021,1.34-0.06c0.142-0.013,0.275-0.123,0.648-0.301
	c-0.292,0.741-0.503,1.277-0.738,1.874c0.493,0.205,1.003,0.417,1.598,0.665c-0.331,0.267-0.644,0.52-1.034,0.834
	c0.447,0.194,0.837,0.363,1.449,0.628c-0.767,0.599-1.431,1.118-2.201,1.72c0.328,0.416,0.709,0.898,1.261,1.599
	c-1.156-0.181-2.128-0.333-3.433-0.537c0.753,1.06,1.34,1.887,2.167,3.051c-1.354-0.554-2.429-0.994-3.626-1.484
	c0.411,0.863,0.823,1.728,1.326,2.785C-739.927-72.341-740.828-72.951-741.98-73.73z"/>
<path fill="#FFFFFF" d="M-716.778-62.577c-0.103,0.639-0.117,0.982-0.217,1.299c-0.575,1.821-1.197,3.628-1.753,5.455
	c-0.619,2.036-1.616,3.824-3.201,5.266c-3.095,2.817-8.658,2.436-10.969-0.802c1.366-0.729,2.791-1.356,4.064-2.21
	c1.042-0.699,1.954-1.62,2.83-2.532c0.829-0.863,1.465-1.917,2.322-2.747c0.608-0.589,1.424-0.976,2.179-1.395
	c1.07-0.594,2.166-1.142,3.259-1.693C-717.868-62.136-717.448-62.29-716.778-62.577z"/>
<path fill="#FFFFFF" d="M-712.617-102.194c0.522-0.146,0.848-0.237,1.174-0.329c0.045,0.063,0.09,0.126,0.135,0.189
	c-0.51,0.444-1.02,0.889-1.735,1.511c0.669-0.088,1.098-0.145,1.528-0.201c0.041,0.072,0.083,0.143,0.124,0.215
	c-0.983,0.61-1.965,1.22-2.99,1.856c0.29,0.153,0.645,0.34,1.195,0.63c-0.769,0.185-1.381,0.332-2.249,0.54
	c0.667,0.296,1.12,0.498,1.574,0.7c0.017,0.11,0.034,0.22,0.051,0.33c-1.929,0.294-3.857,0.588-6.088,0.928
	c1.271-3.319,2.488-6.205,2.31-9.618c1.848,1.337,3.672,2.36,6.123,1.359C-711.907-103.36-712.195-102.887-712.617-102.194z"/>
<path fill="#FFFFFF" d="M-719.017-73.26c2.235,2.178,2.579,4.268,0.922,5.899C-717.061-69.554-717.841-71.424-719.017-73.26z"/>
<path fill="#FFFFFF" d="M-724.057-66.531c0.83-0.392,1.66-0.784,2.49-1.176c0.069,0.147,0.138,0.294,0.208,0.44
	c-0.826,0.389-1.651,0.779-2.477,1.168C-723.91-66.243-723.983-66.387-724.057-66.531z"/>
<circle fill="none" stroke="#FFFFFF" stroke-width="3" stroke-miterlimit="10" cx="-748.226" cy="-98.97" r="69.057"/>
<text transform="matrix(1 0 0 1 -657.0453 -46.8741)" fill="#FFFFFF" font-family="'Exo2-Medium'" font-size="140.8434" letter-spacing="-1">la</text>
<text transform="matrix(1 0 0 1 -529.1527 -44.9229)" fill="#FFFFFF" font-family="'Exo2-Medium'" font-size="140.8434" letter-spacing="-1">Bella</text>
<g>
	<path fill="#FFFFFF" d="M-397.346,172.518c0,0-6.468-9.433-3.504-25.872s19.943-27.759,38.808-23.716
		c18.865,4.043,21.021,25.603,20.213,36.383c-0.809,10.78-9.702,33.688-37.461,57.135c0,0,3.773-18.057-6.468-28.028
		c0,0,5.576-10.71,11.05-12.667c0,0,9.365,14.024,13.655,3.834l3.054,0.208V177.1h2.965l0.27-3.504l5.66-0.27l-0.27-9.163
		c0,0,4.312-2.965,4.851-9.972c0,0-4.312,4.851-9.433,5.39c-5.121,0.539-18.057-0.539-21.291,2.965s-11.589,8.894-15.901,22.099
		c0,0-1.1-6.49,6.318-13.551c0,0,6.818-8.476,7.598-9.743C-377.231,161.352-387.643,161.199-397.346,172.518z"/>
	<circle fill="none" stroke="#FFFFFF" stroke-width="3" stroke-miterlimit="10" cx="-371.657" cy="167.061" r="54.057"/>
</g>
</svg>
