<?xml version="1.0" encoding="utf-8"?>
<!-- Generator: Adobe Illustrator 17.0.0, SVG Export Plug-In . SVG Version: 6.00 Build 0)  -->
<!DOCTYPE svg PUBLIC "-//W3C//DTD SVG 1.1//EN" "http://www.w3.org/Graphics/SVG/1.1/DTD/svg11.dtd">
<svg version="1.1" id="Camada_1" xmlns="http://www.w3.org/2000/svg" xmlns:xlink="http://www.w3.org/1999/xlink" x="0px" y="0px"
	 width="200px" height="85px" viewBox="0 0 200 85" enable-background="new 0 0 200 85" xml:space="preserve">
<g>
	<path fill="#FFFFFF" d="M48.641,61.01c-0.668-0.702-1.002-1.755-1.002-3.16V23.895l1.13-0.154v34.057
		c0,2.124,0.873,3.185,2.62,3.185c0.72,0,1.404-0.136,2.055-0.411l0.309,0.976c-0.891,0.342-1.696,0.514-2.415,0.514
		C50.208,62.062,49.309,61.71,48.641,61.01z"/>
	<path fill="#FFFFFF" d="M76.843,59.648c0.36,0.755,0.984,1.285,1.875,1.593l-0.308,0.822c-1.062-0.342-1.833-0.899-2.312-1.67
		c-0.48-0.77-0.737-1.943-0.771-3.519c-1.952,3.46-4.846,5.189-8.681,5.189c-2.501,0-4.462-0.719-5.882-2.158
		c-1.421-1.438-2.131-3.355-2.131-5.753c0-2.671,0.942-4.743,2.825-6.216c1.883-1.472,4.435-2.21,7.654-2.21h6.062v-3.184
		c0-2.397-0.523-4.186-1.567-5.368c-1.045-1.181-2.799-1.773-5.265-1.773c-2.157,0-4.606,0.565-7.346,1.696l-0.36-0.976
		c2.808-1.164,5.376-1.747,7.706-1.747c2.774,0,4.794,0.677,6.061,2.029c1.267,1.354,1.901,3.365,1.901,6.036v13.459
		C76.304,57.645,76.484,58.895,76.843,59.648z M71.732,59.57c1.369-0.942,2.517-2.32,3.442-4.135v-8.681h-5.856
		c-2.979,0-5.3,0.634-6.961,1.901c-1.661,1.267-2.491,3.099-2.491,5.496c0,2.124,0.608,3.794,1.823,5.009
		c1.215,1.215,2.868,1.823,4.958,1.823C68.667,60.983,70.362,60.513,71.732,59.57z"/>
</g>
<g>
	<path fill="#FFFFFF" d="M107.652,38.041c1.813,2.484,2.722,5.951,2.722,10.403c0,2.808-0.429,5.283-1.285,7.423
		c-0.856,2.141-2.088,3.801-3.699,4.983c-1.609,1.181-3.492,1.772-5.65,1.772c-2.843,0-5.239-1.198-7.192-3.595l-0.462,2.979h-4.161
		V24.043l4.726-0.565v14.846c1.952-2.671,4.503-4.007,7.654-4.007C103.388,34.317,105.836,35.559,107.652,38.041z M103.515,56.328
		c1.181-1.695,1.773-4.323,1.773-7.884c0-3.665-0.55-6.31-1.644-7.937c-1.096-1.626-2.654-2.44-4.675-2.44
		c-2.397,0-4.504,1.405-6.318,4.212v12.945c0.719,1.131,1.6,2.022,2.646,2.671c1.044,0.651,2.148,0.976,3.313,0.976
		C100.699,58.872,102.335,58.024,103.515,56.328z"/>
	<path fill="#FFFFFF" d="M138.267,50.087h-17.26c0.205,2.98,0.958,5.172,2.26,6.575c1.301,1.405,2.979,2.106,5.034,2.106
		c1.301,0,2.499-0.187,3.595-0.564c1.096-0.376,2.243-0.976,3.442-1.799l2.055,2.826c-2.876,2.26-6.028,3.39-9.453,3.39
		c-3.767,0-6.703-1.232-8.81-3.699c-2.106-2.465-3.159-5.855-3.159-10.171c0-2.808,0.453-5.299,1.361-7.473
		c0.907-2.175,2.209-3.879,3.905-5.111c1.695-1.233,3.689-1.849,5.984-1.849c3.596,0,6.352,1.181,8.27,3.544
		c1.918,2.363,2.876,5.634,2.876,9.811C138.369,48.461,138.335,49.265,138.267,50.087z M133.695,46.286
		c0-2.671-0.532-4.708-1.593-6.113c-1.062-1.404-2.655-2.106-4.778-2.106c-3.871,0-5.977,2.843-6.318,8.527h12.688V46.286z"/>
	<path fill="#FFFFFF" d="M146.666,61.055c-1.01-1.044-1.515-2.509-1.515-4.393V24.043l4.726-0.565V56.56
		c0,0.753,0.129,1.302,0.386,1.644s0.693,0.514,1.309,0.514c0.651,0,1.233-0.103,1.747-0.309l1.233,3.288
		c-1.131,0.617-2.381,0.925-3.75,0.925C149.055,62.621,147.676,62.099,146.666,61.055z"/>
	<path fill="#FFFFFF" d="M161.203,61.055c-1.01-1.044-1.515-2.509-1.515-4.393V24.043l4.726-0.565V56.56
		c0,0.753,0.129,1.302,0.386,1.644c0.257,0.342,0.693,0.514,1.309,0.514c0.651,0,1.233-0.103,1.747-0.309l1.233,3.288
		c-1.131,0.617-2.381,0.925-3.75,0.925C163.592,62.621,162.213,62.099,161.203,61.055z"/>
	<path fill="#FFFFFF" d="M193.028,58.127c0.376,0.532,0.942,0.933,1.695,1.207l-1.079,3.288c-1.404-0.171-2.534-0.564-3.39-1.181
		c-0.857-0.616-1.49-1.575-1.901-2.876c-1.815,2.705-4.504,4.058-8.065,4.058c-2.671,0-4.778-0.752-6.318-2.26
		c-1.541-1.506-2.311-3.475-2.311-5.907c0-2.876,1.035-5.085,3.108-6.627c2.071-1.541,5.008-2.312,8.809-2.312h4.161v-2.003
		c0-1.917-0.463-3.288-1.388-4.109c-0.925-0.822-2.346-1.233-4.263-1.233c-1.987,0-4.418,0.48-7.295,1.438l-1.181-3.442
		c3.355-1.233,6.473-1.849,9.349-1.849c3.185,0,5.565,0.779,7.14,2.337c1.575,1.559,2.363,3.776,2.363,6.653v12.38
		C192.463,56.783,192.651,57.596,193.028,58.127z M187.737,54.865v-6.216h-3.544c-5.001,0-7.501,1.849-7.501,5.548
		c0,1.61,0.394,2.826,1.182,3.647c0.787,0.822,1.952,1.233,3.493,1.233C184.072,59.077,186.196,57.674,187.737,54.865z"/>
</g>
<path fill="#FFFFFF" d="M7.371,43.411c0,0-3.163-4.613-1.713-12.653s9.753-13.576,18.98-11.599s10.281,12.521,9.885,17.793
	c-0.395,5.272-4.745,16.475-18.321,27.942c0,0,1.845-8.831-3.163-13.708c0,0,2.727-5.238,5.404-6.195c0,0,4.58,6.859,6.678,1.875
	l1.494,0.102v-1.318h1.45l0.132-1.713l2.768-0.132l-0.132-4.481c0,0,2.109-1.45,2.372-4.877c0,0-2.109,2.372-4.613,2.636
	s-8.831-0.264-10.412,1.45c-1.582,1.713-5.668,4.35-7.776,10.808c0,0-0.538-3.174,3.09-6.627c0,0,3.334-4.145,3.716-4.765
	C17.208,37.95,12.116,37.875,7.371,43.411z"/>
</svg>
